<?xml version="1.0" standalone="no"?>
<!DOCTYPE svg PUBLIC "-//W3C//DTD SVG 20010904//EN"
 "http://www.w3.org/TR/2001/REC-SVG-20010904/DTD/svg10.dtd">
<svg version="1.0" xmlns="http://www.w3.org/2000/svg"
 width="400.000000pt" height="400.000000pt" viewBox="0 0 400.000000 400.000000"
 preserveAspectRatio="xMidYMid meet">
<metadata>
Created by potrace 1.14, written by Peter Selinger 2001-2017
</metadata>
<g transform="translate(0.000000,400.000000) scale(0.100000,-0.100000)"
fill="#000000" stroke="none">
<path d="M1114 2858 c-36 -10 -55 -27 -75 -73 -16 -35 -19 -69 -19 -263 0
-136 -4 -228 -10 -235 -78 -92 -92 -123 -67 -149 6 -7 26 -31 42 -53 l30 -40
5 -265 c4 -238 7 -268 24 -297 25 -41 53 -55 113 -58 68 -3 73 1 73 54 l0 46
-46 -2 c-33 -1 -51 4 -65 18 -22 22 -21 2 -21 286 0 204 -2 225 -20 260 -12
21 -30 46 -41 56 -15 13 -18 22 -12 31 6 7 24 33 40 56 l30 44 1 212 c1 117 4
224 8 239 7 29 40 45 92 45 34 0 34 0 34 45 0 29 -4 45 -12 46 -62 4 -82 3
-104 -3z"/>
<path d="M2637 2773 c-2 -5 -4 -27 -4 -50 l0 -43 47 0 c81 0 82 -3 84 -262 2
-237 6 -258 55 -302 28 -25 27 -37 -7 -72 -16 -17 -32 -39 -37 -49 -4 -11 -9
-128 -10 -260 -1 -132 -5 -250 -9 -262 -8 -24 -38 -36 -91 -37 -29 -1 -30 -3
-30 -50 l-1 -48 68 4 c57 3 72 8 91 28 45 49 49 75 49 332 1 266 -2 253 67
338 29 36 26 53 -22 119 l-44 59 0 221 c-1 211 -2 223 -24 269 -13 26 -35 53
-49 59 -27 14 -126 18 -133 6z"/>
<path d="M1655 2749 c-33 -3 -78 -5 -100 -5 -37 1 -46 -5 -120 -79 -73 -74
-139 -148 -174 -198 -8 -12 -15 -50 -16 -96 -1 -42 -5 -88 -9 -102 -5 -17 -2
-37 8 -56 20 -40 92 -114 143 -147 38 -25 47 -27 110 -21 94 8 183 26 183 37
0 5 -7 25 -17 46 -9 20 -17 39 -18 42 -1 3 -6 16 -12 30 -68 159 -74 180 -58
210 25 48 51 28 92 -71 60 -148 70 -174 158 -378 47 -111 85 -215 85 -231 0
-33 -33 -59 -53 -41 -10 7 -17 -2 -30 -38 -16 -47 -16 -51 4 -117 24 -77 93
-234 122 -277 18 -27 23 -28 86 -26 36 1 77 8 91 15 40 20 88 69 111 114 12
22 34 54 50 70 21 21 29 38 29 64 0 26 6 40 26 53 93 65 108 110 90 259 -9 70
-6 75 109 185 62 59 98 117 110 176 19 92 21 85 -27 79 -24 -3 -59 -11 -78
-16 -34 -10 -36 -9 -80 39 -38 42 -47 48 -58 35 -7 -8 -11 -14 -8 -14 3 0 -12
-39 -33 -87 -21 -49 -56 -130 -77 -181 -31 -74 -43 -94 -63 -99 -13 -3 -30 -2
-38 3 -18 11 -123 251 -114 260 3 4 -1 5 -9 2 -8 -3 -36 -56 -61 -119 -43
-107 -50 -146 -30 -174 4 -5 20 -42 35 -82 30 -74 30 -116 1 -127 -26 -10 -41
3 -64 57 -13 29 -29 66 -36 82 -7 17 -41 98 -74 180 -34 83 -67 161 -73 175
-6 14 -12 27 -13 30 -3 10 -18 45 -36 85 -38 88 -33 135 17 135 14 0 23 -4 20
-9 -4 -5 -2 -11 3 -13 5 -1 27 -50 50 -107 23 -56 52 -123 64 -148 l23 -45 55
129 c30 70 54 131 54 135 0 16 45 65 59 65 26 0 42 -26 99 -162 54 -127 56
-129 67 -100 21 56 71 170 96 218 l25 48 -31 55 c-16 30 -28 65 -26 77 2 12
-1 35 -7 51 l-10 28 -69 -6 c-48 -4 -91 -1 -137 9 -65 16 -66 15 -83 -5 -17
-21 -19 -21 -65 -6 -67 23 -75 29 -78 64 -1 16 -5 35 -9 41 -7 11 -68 11 -181
0z"/>
<path d="M741 1090 l-34 -5 -18 -105 c-10 -58 -18 -111 -19 -117 0 -19 114
-17 150 2 40 21 62 68 64 132 1 47 -2 57 -24 73 -27 21 -68 28 -119 20z m79
-69 c12 -24 3 -80 -18 -103 -15 -18 -57 -25 -65 -10 -2 4 3 35 11 70 12 55 17
62 38 62 13 0 28 -9 34 -19z"/>
<path d="M1677 1085 c-31 -23 -15 -52 23 -40 22 7 27 40 7 48 -7 3 -21 -1 -30
-8z"/>
<path d="M2421 1090 c-19 -4 -35 -29 -77 -120 l-52 -115 26 -3 c17 -3 32 3 42
16 22 26 80 28 87 1 4 -13 14 -19 35 -19 30 0 30 1 24 43 -3 23 -8 62 -11 87
-3 25 -8 54 -10 65 -2 11 -4 25 -4 31 -1 15 -30 22 -60 14z m18 -127 c1 -22
-15 -33 -35 -26 -9 3 -7 16 5 43 12 30 18 35 23 22 4 -9 7 -27 7 -39z"/>
<path d="M2839 1093 c-17 -4 -32 -37 -21 -47 12 -13 42 -5 51 13 12 22 -4 40
-30 34z"/>
<path d="M2582 1067 c-12 -13 -22 -28 -22 -34 0 -6 -7 -13 -15 -17 -17 -6 -20
-33 -4 -38 17 -6 -6 -139 -26 -150 -23 -14 -18 -38 8 -38 34 0 55 28 67 90 6
30 13 65 16 78 3 13 12 22 23 22 10 0 22 7 25 16 9 23 8 24 -15 24 -25 0 -20
22 7 30 10 3 20 13 22 23 5 27 -59 23 -86 -6z"/>
<path d="M1760 1055 c0 -8 0 -18 1 -22 0 -4 -7 -10 -17 -13 -20 -8 -28 -40 -9
-40 10 0 11 -9 4 -41 -13 -57 8 -92 54 -87 33 3 54 38 23 38 -22 0 -29 17 -22
55 5 25 13 35 29 37 29 4 36 38 8 38 -16 0 -21 6 -21 25 0 20 -5 25 -25 25
-16 0 -25 -6 -25 -15z"/>
<path d="M1617 1024 c-3 -3 -25 -7 -49 -8 -47 -1 -46 1 -63 -123 -5 -41 -4
-43 20 -43 14 0 25 3 26 8 8 78 19 102 49 109 25 4 30 10 30 34 0 30 -2 34
-13 23z"/>
<path d="M1912 1014 c-45 -19 -69 -107 -39 -148 27 -36 147 -11 134 28 -4 13
-47 17 -47 5 0 -5 -11 -9 -25 -9 -16 0 -25 6 -25 15 0 11 11 15 36 15 51 0 74
15 74 49 0 16 -6 33 -12 38 -22 17 -65 20 -96 7z m56 -51 c-2 -12 -11 -17 -23
-15 -25 5 -29 8 -20 21 11 19 47 13 43 -6z"/>
<path d="M2100 1019 c-38 -8 -60 -31 -55 -57 2 -9 4 -20 4 -23 1 -4 22 -12 47
-19 40 -11 43 -15 31 -27 -13 -13 -18 -13 -38 -1 -44 27 -77 7 -44 -26 28 -27
102 -24 128 6 32 38 13 70 -47 80 -11 2 -21 8 -23 14 -6 17 24 25 39 11 20
-18 48 -20 54 -2 14 35 -34 57 -96 44z"/>
<path d="M941 1003 c-27 -23 -42 -94 -27 -124 15 -31 61 -42 102 -24 31 13 38
22 32 42 -4 12 -38 14 -38 3 0 -6 -11 -10 -25 -10 -16 0 -25 6 -25 15 0 11 11
15 36 15 50 0 74 15 74 48 0 16 -5 33 -12 40 -18 18 -92 15 -117 -5z m77 -48
c-1 -2 -14 -5 -27 -7 -32 -4 -38 16 -9 29 18 8 25 7 31 -4 5 -8 7 -16 5 -18z"/>
<path d="M1090 998 c0 -12 5 -50 11 -85 11 -64 11 -64 42 -61 28 3 35 11 69
78 20 41 37 78 37 83 1 4 -11 7 -27 7 -24 0 -30 -6 -45 -51 -10 -28 -20 -49
-22 -47 -3 3 -14 70 -15 91 0 4 -11 7 -25 7 -19 0 -25 -5 -25 -22z"/>
<path d="M1266 948 c7 -96 9 -100 41 -96 20 2 32 12 43 36 18 37 30 33 30 -10
0 -27 3 -29 32 -26 30 3 34 8 64 86 l32 82 -29 0 c-26 0 -30 -5 -40 -45 -6
-25 -15 -42 -20 -39 -5 3 -9 11 -8 17 6 46 -2 67 -24 67 -18 0 -27 -10 -42
-47 l-20 -48 -5 45 c-4 40 -8 45 -32 48 l-27 3 5 -73z"/>
<path d="M1656 1011 c-3 -4 -8 -28 -11 -52 -3 -24 -8 -59 -11 -76 -6 -30 -4
-33 19 -33 28 0 32 8 43 85 3 28 8 58 10 68 2 12 -4 17 -21 17 -13 0 -26 -4
-29 -9z"/>
<path d="M2679 1012 c0 -4 -2 -14 -3 -22 -2 -8 -6 -35 -9 -60 -3 -25 -9 -53
-13 -63 -6 -16 -2 -18 22 -15 25 3 30 9 39 48 12 56 21 70 45 70 16 0 30 18
30 40 0 9 -110 11 -111 2z"/>
<path d="M2807 998 c-3 -13 -9 -45 -12 -73 -4 -27 -8 -54 -9 -60 -2 -15 43
-18 49 -3 3 7 11 46 18 86 l14 72 -27 0 c-21 0 -29 -6 -33 -22z"/>
<path d="M2907 1002 c-18 -19 -37 -98 -29 -120 6 -20 55 -39 82 -33 37 9 57
23 64 49 6 18 4 22 -15 22 -12 0 -27 -7 -34 -17 -16 -21 -45 -10 -45 17 0 48
42 81 56 45 4 -8 17 -15 30 -15 28 0 33 30 8 54 -22 23 -96 21 -117 -2z"/>
<path d="M3087 1008 c-18 -14 -39 -102 -29 -127 3 -9 10 -19 16 -23 14 -9 124
-9 130 1 2 3 7 27 11 51 3 25 8 52 11 61 10 35 -102 64 -139 37z m67 -34 c9
-3 16 -14 16 -23 0 -23 -28 -61 -46 -61 -18 0 -19 61 -2 78 14 14 12 14 32 6z"/>
</g>
</svg>
